<?xml version="1.0" encoding="UTF-8" standalone="no"?>
<svg
   id="Camada_1"
   data-name="Camada 1"
   viewBox="0 0 1394.849 365.9736"
   version="1.1"
   sodipodi:docname="registro_ponto.svg"
   width="1394.849"
   height="365.9736"
   inkscape:version="1.2.2 (732a01da63, 2022-12-09)"
   xmlns:inkscape="http://www.inkscape.org/namespaces/inkscape"
   xmlns:sodipodi="http://sodipodi.sourceforge.net/DTD/sodipodi-0.dtd"
   xmlns="http://www.w3.org/2000/svg"
   xmlns:svg="http://www.w3.org/2000/svg">
  <sodipodi:namedview
     id="namedview67"
     pagecolor="#ffffff"
     bordercolor="#000000"
     borderopacity="0.25"
     inkscape:showpageshadow="2"
     inkscape:pageopacity="0.0"
     inkscape:pagecheckerboard="0"
     inkscape:deskcolor="#d1d1d1"
     showgrid="false"
     inkscape:zoom="0.69063116"
     inkscape:cx="75.293446"
     inkscape:cy="527.05412"
     inkscape:window-width="3840"
     inkscape:window-height="2054"
     inkscape:window-x="-11"
     inkscape:window-y="-11"
     inkscape:window-maximized="1"
     inkscape:current-layer="Camada_1" />
  <defs
     id="defs4">
    <style
       id="style2">
      .cls-1 {
        fill: #1d1d1b;
      }

      .cls-2 {
        fill: #c6171e;
      }

      .cls-3 {
        fill: #104f25;
      }

      .cls-4 {
        fill: #e6332a;
      }

      .cls-5 {
        fill: #008f47;
      }
    </style>
  </defs>
  <g
     id="g26"
     transform="matrix(0.8730404,0,0,0.8730404,-184.05438,6.2528311)">
    <path
       class="cls-2"
       d="m 545.26,325.38 c 0,-36.61 -29.61,-66.28 -66.16,-66.28 -36.55,0 -66.16,29.67 -66.16,66.28 0,36.61 29.62,66.29 66.16,66.29 36.54,0 66.16,-29.68 66.16,-66.29"
       id="path18" />
    <path
       class="cls-3"
       d="m 471.72,214.11 c 0,0 -72.32,-0.04 -162.32,-0.04 -40.29,0 -98.58,-0.92 -98.58,67.99 V 346 c 0,60.62 58.28,58.87 98.58,58.87 h 90.35 v -85.28 c 0,-49.81 39.37,-73.74 79.35,-73.74 48.45,0 79.37,30.71 79.37,74.61 v 84.41 h 71.68 V 282.06 c 0,-67.99 -56.67,-67.95 -97.39,-67.95 -0.59,0 -38.59,0 -39.17,0 z"
       id="path20" />
    <path
       class="cls-5"
       d="m 369.27,190.77 c 0,0 72.31,0.04 162.31,0.04 40.3,0 98.59,0.93 98.59,-67.98 V 58.87 C 630.16,-1.74 571.88,0 531.58,0 h -90.34 v 85.28 c 0,49.81 -39.37,73.73 -79.36,73.73 -48.45,0 -79.35,-30.7 -79.35,-74.6 V 0 h -71.7 v 122.82 c 0,67.98 56.67,67.94 97.39,67.94 0.59,0 38.6,0 39.18,0 h 21.87 z"
       id="path22" />
    <path
       class="cls-4"
       d="m 295.72,79.5 c 0,36.6 29.62,66.29 66.16,66.29 36.54,0 66.16,-29.69 66.16,-66.29 0,-36.6 -29.61,-66.28 -66.16,-66.28 -36.55,0 -66.16,29.67 -66.16,66.28"
       id="path24" />
  </g>
  <text
     xml:space="preserve"
     style="font-style:normal;font-variant:normal;font-weight:bold;font-stretch:normal;font-size:183.371px;font-family:Helvetica;-inkscape-font-specification:'Helvetica Bold';text-align:start;text-anchor:start;fill:#000000;stroke-width:64.2315;stroke-linecap:round;stroke-linejoin:round"
     x="437.16531"
     y="134.01027"
     id="text404"><tspan
       sodipodi:role="line"
       x="437.16531"
       y="134.01027"
       style="font-style:normal;font-variant:normal;font-weight:bold;font-stretch:normal;font-family:Helvetica;-inkscape-font-specification:'Helvetica Bold';text-align:start;text-anchor:start;stroke-width:64.2315"
       id="tspan456">REGISTRO </tspan><tspan
       sodipodi:role="line"
       x="437.16531"
       y="363.22403"
       style="font-style:normal;font-variant:normal;font-weight:bold;font-stretch:normal;font-family:Helvetica;-inkscape-font-specification:'Helvetica Bold';text-align:start;text-anchor:start;stroke-width:64.2315"
       id="tspan491">DE PONTO</tspan></text>
</svg>
